<svg xmlns="http://www.w3.org/2000/svg" xmlns:xlink="http://www.w3.org/1999/xlink" width="1587" zoomAndPan="magnify" viewBox="0 0 1190.25 1683.749949" height="2245" preserveAspectRatio="xMidYMid meet" version="1.0"><defs><filter x="0%" y="0%" width="100%" height="100%" id="1c5f3143ae"><feColorMatrix values="0 0 0 0 1 0 0 0 0 1 0 0 0 0 1 0 0 0 1 0" color-interpolation-filters="sRGB"/></filter><clipPath id="dd12bb7c65"><path d="M 3 3 L 827.605469 3 L 827.605469 1217 L 3 1217 Z M 3 3 " clip-rule="nonzero"/></clipPath><clipPath id="e9524e0200"><path d="M 2.585938 0.558594 L 827.605469 0.558594 L 827.605469 1217.621094 L 2.585938 1217.621094 Z M 2.585938 0.558594 " clip-rule="nonzero"/></clipPath><clipPath id="1f7809dfde"><path d="M 166 0.558594 L 665 0.558594 L 665 265 L 166 265 Z M 166 0.558594 " clip-rule="nonzero"/></clipPath><mask id="deef2e9f33"><g filter="url(#1c5f3143ae)"><rect x="-471.855" width="1713.96" fill="#000000" y="-573.424989" height="2424.599927" fill-opacity="0.52"/></g></mask><clipPath id="20b522058e"><path d="M 6.394531 0.128906 L 689.792969 0.128906 L 689.792969 846.878906 L 6.394531 846.878906 Z M 6.394531 0.128906 " clip-rule="nonzero"/></clipPath><clipPath id="0432c01744"><rect x="0" width="691" y="0" height="852"/></clipPath><clipPath id="947f56887e"><path d="M 596 597 L 646.433594 597 L 646.433594 648 L 596 648 Z M 596 597 " clip-rule="nonzero"/></clipPath><clipPath id="fe1184d187"><path d="M 401 350.109375 L 452 350.109375 L 452 401 L 401 401 Z M 401 350.109375 " clip-rule="nonzero"/></clipPath><clipPath id="a778154a17"><path d="M 398 1015 L 446 1015 L 446 1062.730469 L 398 1062.730469 Z M 398 1015 " clip-rule="nonzero"/></clipPath><clipPath id="b0d47ca113"><path d="M 184.089844 605 L 232 605 L 232 653 L 184.089844 653 Z M 184.089844 605 " clip-rule="nonzero"/></clipPath><clipPath id="213f28f209"><rect x="0" width="832" y="0" height="1220"/></clipPath></defs><g transform="matrix(1, 0, 0, 1, 210, 203)"><g clip-path="url(#213f28f209)"><g clip-path="url(#dd12bb7c65)"><path fill="#af7714" d="M 78.390625 1216.503906 C 37.242188 1216.503906 3.421875 1182.972656 3.421875 1141.558594 L 3.421875 202.261719 C 3.421875 160.847656 36.976562 127.292969 78.390625 127.292969 L 211.128906 127.292969 L 321.035156 112.367188 L 324.691406 103.074219 C 326.097656 99.113281 329.777344 96.03125 334.003906 95.171875 L 375.703125 87.003906 C 382.199219 85.308594 385.566406 83.613281 381.910156 80.792969 C 365.003906 62.761719 365.554688 34.296875 383.320312 16.835938 C 401.066406 -0.359375 429.535156 -0.359375 447.277344 16.835938 C 465.046875 34.296875 465.597656 62.761719 448.6875 80.792969 C 445.035156 83.613281 448.136719 85.308594 454.609375 87.003906 L 496.597656 95.171875 C 500.824219 96.03125 504.214844 99.113281 505.910156 103.074219 L 509.5625 112.9375 L 614.957031 127.582031 L 751.921875 127.292969 C 793.359375 127.292969 827.175781 160.847656 827.175781 202.261719 L 827.175781 1141.558594 C 827.175781 1182.972656 793.359375 1216.503906 751.921875 1216.503906 L 78.390625 1216.503906 " fill-opacity="1" fill-rule="nonzero"/></g><g clip-path="url(#e9524e0200)"><path stroke-linecap="butt" transform="matrix(0.563627, 0, 0, -0.563627, -8.686572, 1231.16638)" fill="none" stroke-linejoin="miter" d="M 154.494337 26.014494 C 81.480915 26.014494 21.483081 85.506398 21.483081 158.984166 L 21.483081 1825.505977 C 21.483081 1898.983745 81.016568 1958.517233 154.494337 1958.517233 L 390.001605 1958.517233 L 584.999765 1984.998892 L 591.486767 2001.486688 C 593.981767 2008.514273 600.510352 2013.982483 608.009215 2015.507205 L 681.992915 2029.999001 C 693.518431 2033.006863 699.492572 2036.014724 693.00557 2041.018587 C 663.010118 2073.010039 663.987327 2123.51301 695.507501 2154.492602 C 726.993023 2185.000915 777.502925 2185.000915 808.981516 2154.492602 C 840.508621 2123.51301 841.48583 2073.010039 811.483447 2041.018587 C 805.003376 2036.014724 810.506239 2033.006863 821.990172 2029.999001 L 896.486733 2015.507205 C 903.985596 2013.982483 910.001319 2008.514273 913.009181 2001.486688 L 919.489252 1983.987031 L 1106.482619 1958.004371 L 1349.48875 1958.517233 C 1423.008102 1958.517233 1483.005937 1898.983745 1483.005937 1825.505977 L 1483.005937 158.984166 C 1483.005937 85.506398 1423.008102 26.014494 1349.48875 26.014494 Z M 154.494337 26.014494 " stroke="#181007" stroke-width="2.5" stroke-opacity="1" stroke-miterlimit="4"/></g><path fill="#af7714" d="M 415.15625 73.484375 C 433.761719 73.484375 445.320312 53.472656 436.007812 37.6875 C 426.714844 21.613281 403.597656 21.351562 394.59375 37.6875 C 385.28125 53.472656 396.550781 73.484375 415.15625 73.484375 " fill-opacity="1" fill-rule="nonzero"/><path stroke-linecap="butt" transform="matrix(0.563627, 0, 0, -0.563627, -8.686572, 1231.16638)" fill="none" stroke-linejoin="miter" d="M 751.991543 2053.985659 C 785.001788 2053.985659 805.509307 2089.490905 788.986858 2117.497287 C 772.499062 2146.01653 731.484024 2146.487808 715.50909 2117.497287 C 698.986641 2089.490905 718.981299 2053.985659 751.991543 2053.985659 Z M 751.991543 2053.985659 " stroke="#181007" stroke-width="2.5" stroke-opacity="1" stroke-miterlimit="4"/><path stroke-linecap="butt" transform="matrix(0.563627, 0, 0, -0.563627, -8.686572, 1231.16638)" fill="none" stroke-linejoin="miter" d="M 144.999473 143.009232 L 144.999473 1801.484665 L 331.015631 1801.013387 " stroke="#181007" stroke-width="2.5" stroke-opacity="1" stroke-miterlimit="4"/><path stroke-linecap="butt" transform="matrix(0.563627, 0, 0, -0.563627, -8.686572, 1231.16638)" fill="none" stroke-linejoin="miter" d="M 324.999908 1730.002897 L 324.999908 1781.483077 C 324.999908 1810.00232 369.494086 1841.016564 396.481676 1845.507565 L 511.993274 1863.007222 C 530.504793 1866.015084 546.486658 1878.982157 553.008312 1896.994675 L 584.999765 1984.998892 " stroke="#181007" stroke-width="2.5" stroke-opacity="1" stroke-miterlimit="4"/><path stroke-linecap="butt" transform="matrix(0.563627, 0, 0, -0.563627, -8.686572, 1231.16638)" fill="none" stroke-linejoin="miter" d="M 390.001605 1958.517233 C 378.982018 1956.99251 371.018808 1947.497646 371.018808 1936.990922 L 371.018808 1896.994675 L 553.514243 1896.994675 " stroke="#181007" stroke-width="2.5" stroke-opacity="1" stroke-miterlimit="4"/><path stroke-linecap="butt" transform="matrix(0.563627, 0, 0, -0.563627, -8.686572, 1231.16638)" fill="none" stroke-linejoin="miter" d="M 951.016358 1896.994675 L 1125.001068 1896.994675 L 1125.001068 1936.013713 C 1123.982276 1946.485785 1116.483413 1955.00344 1106.482619 1958.517233 " stroke="#181007" stroke-width="2.5" stroke-opacity="1" stroke-miterlimit="4"/><path stroke-linecap="butt" transform="matrix(0.563627, 0, 0, -0.563627, -8.686572, 1231.16638)" fill="none" stroke-linejoin="miter" d="M 919.489252 1983.987031 L 951.016358 1896.994675 C 957.503359 1878.982157 973.512947 1866.015084 992.502674 1863.007222 L 1108.007342 1845.507565 C 1135.001862 1841.016564 1179.48911 1810.00232 1179.48911 1781.483077 L 1179.48911 1730.002897 L 324.999908 1730.002897 " stroke="#181007" stroke-width="2.5" stroke-opacity="1" stroke-miterlimit="4"/><path stroke-linecap="butt" transform="matrix(0.563627, 0, 0, -0.563627, -8.686572, 1231.16638)" fill="none" stroke-linejoin="miter" d="M 616.014009 1866.486362 L 880.504868 1866.486362 " stroke="#181007" stroke-width="2.5" stroke-opacity="1" stroke-miterlimit="4"/><path stroke-linecap="butt" transform="matrix(0.563627, 0, 0, -0.563627, -8.686572, 1231.16638)" fill="none" stroke-linejoin="miter" d="M 1173.009039 1801.013387 L 1351.013473 1801.484665 L 1351.013473 143.009232 L 144.999473 143.009232 " stroke="#181007" stroke-width="2.5" stroke-opacity="1" stroke-miterlimit="4"/><path fill="#a6a6a6" d="M 321.035156 112.652344 L 324.425781 103.339844 C 325.835938 99.113281 329.488281 96.292969 333.71875 95.457031 L 375.703125 87.003906 C 382.199219 85.59375 385.28125 83.613281 381.625 81.082031 C 364.714844 62.761719 365.289062 34.296875 383.035156 17.121094 C 400.78125 -0.644531 429.246094 -0.644531 447.015625 17.121094 C 464.761719 34.296875 465.597656 62.761719 448.421875 81.082031 C 444.746094 83.613281 448.136719 85.59375 454.609375 87.003906 L 496.332031 95.457031 C 500.558594 96.292969 504.214844 99.113281 505.910156 103.339844 L 509.277344 113.203125 L 614.695312 127.867188 C 620.332031 129.5625 624.558594 134.339844 625.109375 140.261719 L 625.394531 162.257812 L 527.046875 162.257812 C 530.988281 172.382812 539.726562 179.714844 550.714844 181.410156 L 615.53125 191.273438 C 630.742188 193.804688 656.105469 211.574219 656.105469 227.335938 L 656.105469 256.378906 L 174.207031 256.378906 L 174.207031 227.335938 C 174.207031 211.574219 199.28125 193.804688 214.519531 191.273438 L 279.601562 181.410156 C 290.320312 179.714844 299.328125 172.382812 303.003906 162.257812 L 200.429688 162.257812 L 200.429688 139.710938 C 200.429688 133.503906 204.917969 128.4375 210.839844 127.582031 L 321.035156 112.652344 " fill-opacity="1" fill-rule="nonzero"/><g clip-path="url(#1f7809dfde)"><path stroke-linecap="butt" transform="matrix(0.563627, 0, 0, -0.563627, -8.686572, 1231.16638)" fill="none" stroke-linejoin="miter" d="M 584.999765 1984.492961 L 591.015489 2001.01541 C 593.51742 2008.514273 599.997491 2013.518135 607.503285 2015.001275 L 681.992915 2029.999001 C 693.518431 2032.500932 698.986641 2036.014724 692.499639 2040.505726 C 662.497257 2073.010039 663.516049 2123.51301 695.001571 2153.986671 C 726.487092 2185.506846 776.990064 2185.506846 808.517169 2153.986671 C 840.002691 2123.51301 841.48583 2073.010039 811.012169 2040.505726 C 804.490515 2036.014724 810.506239 2032.500932 821.990172 2029.999001 L 896.015455 2015.001275 C 903.514318 2013.518135 910.001319 2008.514273 913.009181 2001.01541 L 918.983322 1983.515753 L 1106.018272 1957.498441 C 1116.019066 1954.490579 1123.517929 1946.014507 1124.495138 1935.507782 L 1125.001068 1896.481814 L 950.510427 1896.481814 C 957.503359 1878.51781 973.007016 1865.509153 992.502674 1862.501292 L 1107.501411 1845.001634 C 1134.489001 1840.510633 1179.48911 1808.983528 1179.48911 1781.018729 L 1179.48911 1729.490036 L 324.493977 1729.490036 L 324.493977 1781.018729 C 324.493977 1808.983528 368.981224 1840.510633 396.017328 1845.001634 L 511.487344 1862.501292 C 530.504793 1865.509153 546.486658 1878.51781 553.008312 1896.481814 L 371.018808 1896.481814 L 371.018808 1936.484991 C 371.018808 1947.497646 378.982018 1956.486579 389.488743 1958.004371 Z M 584.999765 1984.492961 " stroke="#1f1d20" stroke-width="2.5" stroke-opacity="1" stroke-miterlimit="4"/></g><path fill="#a6a6a6" d="M 415.15625 73.75 C 433.472656 73.75 445.035156 53.757812 435.742188 37.6875 C 426.714844 21.613281 403.597656 21.351562 394.308594 37.6875 C 385.28125 53.757812 396.550781 73.75 415.15625 73.75 " fill-opacity="1" fill-rule="nonzero"/><path stroke-linecap="butt" transform="matrix(0.563627, 0, 0, -0.563627, -8.686572, 1231.16638)" fill="none" stroke-linejoin="miter" d="M 751.991543 2053.514382 C 784.488927 2053.514382 805.003376 2088.984974 788.51558 2117.497287 C 772.499062 2146.01653 731.484024 2146.487808 715.003159 2117.497287 C 698.986641 2088.984974 718.981299 2053.514382 751.991543 2053.514382 Z M 751.991543 2053.514382 " stroke="#1f1d20" stroke-width="2.5" stroke-opacity="1" stroke-miterlimit="4"/><path stroke-linecap="butt" transform="matrix(0.563627, 0, 0, -0.563627, -8.686572, 1231.16638)" fill="none" stroke-linejoin="miter" d="M 584.999765 1984.492961 L 553.008312 1896.481814 " stroke="#1f1d20" stroke-width="2.5" stroke-opacity="1" stroke-miterlimit="4"/><path stroke-linecap="butt" transform="matrix(0.563627, 0, 0, -0.563627, -8.686572, 1231.16638)" fill="none" stroke-linejoin="miter" d="M 615.508078 1866.015084 L 880.504868 1866.015084 " stroke="#1f1d20" stroke-width="2.5" stroke-opacity="1" stroke-miterlimit="4"/><path stroke-linecap="butt" transform="matrix(0.563627, 0, 0, -0.563627, -8.686572, 1231.16638)" fill="none" stroke-linejoin="miter" d="M 950.510427 1896.481814 L 918.983322 1983.515753 " stroke="#1f1d20" stroke-width="2.5" stroke-opacity="1" stroke-miterlimit="4"/><path fill="#ffffff" d="M 73.039062 1150.5625 L 73.039062 215.800781 L 177.882812 215.800781 C 175.613281 219.457031 174.207031 223.398438 174.207031 227.074219 L 174.207031 256.089844 L 656.105469 256.089844 L 656.105469 227.074219 C 656.105469 223.398438 654.699219 219.457031 652.453125 215.800781 L 753.046875 215.800781 L 753.046875 1150.5625 L 73.039062 1150.5625 " fill-opacity="1" fill-rule="nonzero"/><path stroke-linecap="butt" transform="matrix(0.563627, 0, 0, -0.563627, -8.686572, 1231.16638)" fill="none" stroke-linejoin="miter" d="M 144.999473 143.009232 L 144.999473 1801.484665 L 331.015631 1801.484665 C 326.988978 1794.997663 324.493977 1788.004731 324.493977 1781.483077 L 324.493977 1730.002897 L 1179.48911 1730.002897 L 1179.48911 1781.483077 C 1179.48911 1788.004731 1176.994109 1794.997663 1173.009039 1801.484665 L 1351.484751 1801.484665 L 1351.484751 143.009232 Z M 144.999473 143.009232 " stroke="#231f20" stroke-width="2.5" stroke-opacity="1" stroke-miterlimit="4"/><g mask="url(#deef2e9f33)"><g transform="matrix(1, 0, 0, 1, 67, 283)"><g clip-path="url(#0432c01744)"><g clip-path="url(#20b522058e)"><path fill="#231f20" d="M 612.59375 2.199219 L 612.40625 0.128906 L 78.976562 0.128906 L 1.324219 851.351562 L 690.058594 851.351562 Z M 447.226562 775.757812 L 244.140625 775.757812 L 241.847656 846.796875 L 170.332031 846.796875 L 175.074219 709.285156 L 516.296875 709.285156 L 521.039062 846.796875 L 449.519531 846.796875 Z M 422.046875 704.730469 L 269.347656 704.730469 C 287.75 685.300781 315.871094 673.808594 345.695312 673.742188 C 375.519531 673.820312 403.644531 685.300781 422.046875 704.730469 Z M 520.703125 704.730469 L 428.746094 704.730469 C 409.566406 682.460938 378.671875 669.179688 345.972656 669.179688 C 345.875 669.179688 345.785156 669.179688 345.683594 669.179688 C 345.585938 669.179688 345.496094 669.179688 345.394531 669.179688 C 312.699219 669.179688 281.804688 682.460938 262.621094 704.730469 L 170.664062 704.730469 L 165.765625 846.796875 L 41.335938 846.796875 C 39.730469 840.996094 32.941406 823.539062 8.992188 817.449219 L 48.847656 380.523438 L 243.316406 380.523438 C 244.765625 426.832031 289.988281 464.144531 345.40625 464.144531 C 345.507812 464.144531 345.597656 464.144531 345.695312 464.144531 C 345.796875 464.144531 345.886719 464.144531 345.984375 464.144531 C 401.40625 464.144531 446.625 426.832031 448.074219 380.523438 L 642.542969 380.523438 L 682.398438 817.449219 C 658.453125 823.527344 651.660156 840.996094 650.058594 846.796875 L 525.613281 846.796875 L 520.714844 704.730469 Z M 80.902344 29.210938 C 102.976562 27.128906 109.144531 10.460938 110.601562 4.691406 L 204.542969 4.691406 L 201.679688 104.292969 L 270.949219 104.292969 C 290.199219 121.527344 317.273438 131.40625 345.417969 131.40625 C 345.519531 131.40625 345.605469 131.40625 345.707031 131.40625 C 345.808594 131.40625 345.898438 131.40625 345.996094 131.40625 C 374.140625 131.40625 401.214844 121.527344 420.464844 104.292969 L 489.734375 104.292969 L 486.871094 4.691406 L 580.8125 4.691406 C 582.269531 10.460938 588.4375 27.128906 610.511719 29.210938 L 642.140625 375.957031 L 448.085938 375.957031 C 446.636719 329.648438 401.417969 292.335938 345.996094 292.335938 C 345.898438 292.335938 345.808594 292.335938 345.707031 292.335938 C 345.605469 292.335938 345.519531 292.335938 345.417969 292.335938 C 290 292.335938 244.777344 329.648438 243.328125 375.957031 L 49.273438 375.957031 Z M 427.855469 4.691406 L 482.285156 4.691406 L 485.011719 99.726562 L 206.355469 99.726562 L 209.085938 4.691406 L 263.511719 4.691406 L 263.511719 55.757812 L 427.835938 55.757812 L 427.835938 4.691406 Z M 278.574219 104.28125 L 412.804688 104.28125 C 394.792969 118.613281 370.679688 126.761719 345.695312 126.828125 C 320.703125 126.761719 296.601562 118.613281 278.585938 104.28125 Z M 442.929688 375.957031 L 248.449219 375.957031 C 249.910156 332.242188 292.925781 297.023438 345.683594 296.898438 C 398.453125 297.023438 441.472656 332.242188 442.917969 375.957031 Z M 248.449219 380.511719 L 442.929688 380.511719 C 441.472656 424.226562 398.453125 459.445312 345.695312 459.566406 C 292.925781 459.445312 249.910156 424.226562 248.460938 380.511719 Z M 610.058594 24.589844 C 592.511719 22.5625 587.011719 10.171875 585.453125 4.679688 L 608.242188 4.679688 Z M 360.925781 4.691406 L 423.292969 4.691406 L 423.292969 51.203125 L 268.089844 51.203125 L 268.089844 4.691406 Z M 105.9375 4.691406 C 104.402344 10.183594 98.957031 22.574219 81.324219 24.601562 L 83.136719 4.691406 Z M 8.582031 822.035156 C 28.53125 827.367188 34.84375 841.007812 36.636719 846.789062 L 6.320312 846.789062 Z M 349.449219 846.796875 L 246.425781 846.796875 L 248.5625 780.324219 L 442.820312 780.324219 L 444.957031 846.796875 Z M 654.777344 846.796875 C 656.613281 841.042969 663.015625 827.359375 682.800781 822.046875 L 685.058594 846.796875 Z M 654.777344 846.796875 " fill-opacity="1" fill-rule="nonzero"/></g></g></g></g><g clip-path="url(#947f56887e)"><path fill="#1d1d1b" d="M 597.21875 627.476562 C 599.480469 638.984375 609.992188 647.226562 621.582031 647.339844 C 632.015625 647.238281 641.300781 640.742188 644.957031 630.972656 C 648.566406 621.328125 645.453125 609.851562 637.472656 603.347656 C 629.363281 596.742188 617.738281 595.699219 608.726562 601.175781 C 599.761719 606.617188 595.203125 617.214844 597.21875 627.476562 Z M 631.84375 605.1875 C 638.996094 609.433594 642.957031 618.003906 641.339844 626.203125 C 639.476562 635.652344 631.1875 642.46875 621.582031 642.566406 C 613.332031 642.484375 605.582031 637.355469 602.738281 629.503906 C 599.828125 621.457031 602.238281 612.523438 608.75 606.992188 C 615.144531 601.554688 624.6875 600.933594 631.84375 605.1875 Z M 631.84375 605.1875 " fill-opacity="1" fill-rule="nonzero"/></g><path fill="#1d1d1b" d="M 318.308594 665.757812 C 321.917969 656.113281 318.804688 644.636719 310.824219 638.136719 C 302.714844 631.527344 291.089844 630.484375 282.078125 635.960938 C 273.113281 641.410156 268.554688 652.007812 270.566406 662.265625 C 272.828125 673.777344 283.339844 682.015625 294.929688 682.132812 C 305.367188 682.027344 314.648438 675.527344 318.308594 665.757812 Z M 276.089844 664.289062 C 273.179688 656.242188 275.589844 647.308594 282.101562 641.777344 C 288.496094 636.34375 298.039062 635.71875 305.199219 639.972656 C 312.347656 644.222656 316.308594 652.792969 314.695312 660.992188 C 312.832031 670.4375 304.542969 677.257812 294.9375 677.351562 C 286.683594 677.273438 278.933594 672.140625 276.089844 664.289062 Z M 276.089844 664.289062 " fill-opacity="1" fill-rule="nonzero"/><path fill="#1d1d1b" d="M 246.347656 804.097656 C 249.960938 794.453125 246.847656 782.980469 238.867188 776.476562 C 230.757812 769.871094 219.132812 768.824219 210.121094 774.300781 C 201.15625 779.75 196.597656 790.347656 198.609375 800.605469 C 200.871094 812.117188 211.382812 820.359375 222.972656 820.472656 C 233.40625 820.371094 242.695312 813.867188 246.347656 804.097656 Z M 204.132812 802.632812 C 201.21875 794.585938 203.632812 785.652344 210.144531 780.121094 C 216.539062 774.683594 226.082031 774.058594 233.242188 778.3125 C 240.390625 782.5625 244.351562 791.132812 242.738281 799.332031 C 240.875 808.78125 232.589844 815.597656 222.980469 815.691406 C 214.726562 815.613281 206.976562 810.484375 204.132812 802.632812 Z M 204.132812 802.632812 " fill-opacity="1" fill-rule="nonzero"/><g clip-path="url(#fe1184d187)"><path fill="#1d1d1b" d="M 449.671875 383.730469 C 453.285156 374.085938 450.167969 362.609375 442.1875 356.105469 C 434.082031 349.5 422.457031 348.457031 413.445312 353.933594 C 404.480469 359.378906 399.917969 369.976562 401.933594 380.238281 C 404.191406 391.746094 414.703125 399.988281 426.296875 400.101562 C 436.730469 400 446.015625 393.5 449.671875 383.730469 Z M 407.457031 382.261719 C 404.542969 374.214844 406.957031 365.28125 413.464844 359.75 C 419.859375 354.3125 429.402344 353.691406 436.566406 357.945312 C 443.714844 362.191406 447.675781 370.765625 446.0625 378.960938 C 444.199219 388.410156 435.910156 395.226562 426.300781 395.324219 C 418.050781 395.242188 410.300781 390.117188 407.457031 382.261719 Z M 407.457031 382.261719 " fill-opacity="1" fill-rule="nonzero"/></g><path fill="#1d1d1b" d="M 568.816406 901.441406 C 567.09375 903.164062 565.371094 904.882812 563.652344 906.605469 C 558.917969 901.871094 554.179688 897.136719 549.441406 892.398438 C 547.699219 890.65625 545.957031 888.914062 544.214844 887.171875 C 542.039062 884.996094 538.660156 888.371094 540.835938 890.550781 C 545.59375 895.304688 550.351562 900.0625 555.105469 904.816406 C 556.828125 906.539062 558.546875 908.257812 560.269531 909.980469 C 555.535156 914.714844 550.800781 919.453125 546.0625 924.1875 C 544.320312 925.929688 542.574219 927.675781 540.832031 929.417969 C 538.65625 931.59375 542.03125 934.972656 544.210938 932.796875 C 548.96875 928.039062 553.726562 923.28125 558.480469 918.527344 C 560.203125 916.804688 561.921875 915.085938 563.644531 913.363281 C 568.378906 918.097656 573.117188 922.832031 577.855469 927.570312 C 579.597656 929.3125 581.339844 931.058594 583.082031 932.800781 C 585.257812 934.972656 588.636719 931.597656 586.460938 929.421875 C 581.703125 924.664062 576.945312 919.90625 572.191406 915.152344 C 570.46875 913.429688 568.75 911.710938 567.027344 909.988281 C 571.761719 905.253906 576.496094 900.519531 581.234375 895.78125 C 582.976562 894.039062 584.722656 892.292969 586.464844 890.550781 C 588.640625 888.378906 585.265625 885 583.085938 887.171875 C 578.328125 891.925781 573.570312 896.683594 568.816406 901.441406 Z M 568.816406 901.441406 " fill-opacity="1" fill-rule="nonzero"/><path fill="#1d1d1b" d="M 583.578125 727.863281 C 581.855469 729.585938 580.136719 731.304688 578.414062 733.027344 C 573.679688 728.292969 568.945312 723.558594 564.207031 718.820312 C 562.464844 717.078125 560.71875 715.332031 558.976562 713.589844 C 556.800781 711.414062 553.421875 714.789062 555.597656 716.96875 C 560.355469 721.726562 565.113281 726.484375 569.867188 731.238281 C 571.589844 732.960938 573.308594 734.679688 575.03125 736.402344 C 570.296875 741.136719 565.5625 745.871094 560.824219 750.609375 C 559.082031 752.351562 557.335938 754.097656 555.59375 755.835938 C 553.421875 758.011719 556.796875 761.390625 558.972656 759.214844 C 563.730469 754.457031 568.488281 749.703125 573.242188 744.949219 C 574.964844 743.226562 576.683594 741.503906 578.40625 739.78125 C 583.144531 744.519531 587.878906 749.253906 592.617188 753.992188 C 594.359375 755.734375 596.105469 757.476562 597.84375 759.21875 C 600.019531 761.394531 603.398438 758.019531 601.222656 755.839844 C 596.464844 751.082031 591.710938 746.328125 586.953125 741.574219 C 585.230469 739.851562 583.511719 738.128906 581.789062 736.40625 C 586.523438 731.671875 591.261719 726.9375 596 722.199219 C 597.742188 720.457031 599.484375 718.714844 601.226562 716.972656 C 603.402344 714.796875 600.027344 711.417969 597.847656 713.59375 C 593.089844 718.347656 588.335938 723.105469 583.578125 727.863281 Z M 583.578125 727.863281 " fill-opacity="1" fill-rule="nonzero"/><path fill="#1d1d1b" d="M 463.554688 608.742188 C 468.3125 603.984375 473.066406 599.230469 477.824219 594.476562 C 479.546875 592.753906 481.265625 591.03125 482.988281 589.308594 C 487.722656 594.046875 492.457031 598.78125 497.195312 603.519531 C 498.9375 605.257812 500.683594 607.003906 502.425781 608.746094 C 504.601562 610.921875 507.980469 607.546875 505.804688 605.367188 C 501.046875 600.609375 496.289062 595.855469 491.535156 591.101562 C 489.8125 589.378906 488.09375 587.65625 486.371094 585.933594 C 491.105469 581.199219 495.839844 576.464844 500.578125 571.726562 C 502.320312 569.984375 504.066406 568.242188 505.808594 566.5 C 507.980469 564.324219 504.605469 560.945312 502.429688 563.121094 C 497.671875 567.878906 492.914062 572.636719 488.160156 577.390625 C 486.4375 579.113281 484.71875 580.832031 482.992188 582.554688 C 478.257812 577.820312 473.523438 573.082031 468.785156 568.347656 C 467.042969 566.605469 465.296875 564.859375 463.554688 563.117188 C 461.382812 560.941406 458.003906 564.316406 460.179688 566.496094 C 464.933594 571.253906 469.691406 576.011719 474.445312 580.765625 C 476.171875 582.488281 477.890625 584.207031 479.613281 585.929688 C 474.878906 590.664062 470.140625 595.398438 465.402344 600.136719 C 463.660156 601.878906 461.917969 603.621094 460.175781 605.363281 C 458 607.542969 461.375 610.921875 463.554688 608.742188 Z M 463.554688 608.742188 " fill-opacity="1" fill-rule="nonzero"/><g clip-path="url(#a778154a17)"><path fill="#1d1d1b" d="M 403.019531 1061.695312 C 407.777344 1056.9375 412.535156 1052.183594 417.289062 1047.429688 C 419.011719 1045.707031 420.734375 1043.984375 422.457031 1042.261719 C 427.191406 1047 431.925781 1051.734375 436.664062 1056.472656 C 438.40625 1058.214844 440.152344 1059.957031 441.894531 1061.699219 C 444.066406 1063.875 447.445312 1060.5 445.273438 1058.320312 C 440.515625 1053.5625 435.757812 1048.808594 431.003906 1044.054688 C 429.28125 1042.332031 427.558594 1040.609375 425.835938 1038.886719 C 430.574219 1034.152344 435.308594 1029.417969 440.046875 1024.679688 C 441.789062 1022.9375 443.53125 1021.195312 445.273438 1019.453125 C 447.449219 1017.277344 444.074219 1013.898438 441.894531 1016.074219 C 437.140625 1020.832031 432.382812 1025.589844 427.628906 1030.34375 C 425.90625 1032.066406 424.183594 1033.789062 422.460938 1035.507812 C 417.726562 1030.773438 412.992188 1026.039062 408.253906 1021.300781 C 406.511719 1019.558594 404.765625 1017.8125 403.023438 1016.070312 C 400.847656 1013.894531 397.472656 1017.269531 399.644531 1019.449219 C 404.402344 1024.207031 409.160156 1028.964844 413.914062 1033.71875 C 415.636719 1035.441406 417.359375 1037.164062 419.082031 1038.882812 C 414.34375 1043.617188 409.609375 1048.351562 404.871094 1053.089844 C 403.128906 1054.832031 401.382812 1056.578125 399.644531 1058.316406 C 397.46875 1060.496094 400.847656 1063.875 403.019531 1061.695312 Z M 403.019531 1061.695312 " fill-opacity="1" fill-rule="nonzero"/></g><path fill="#1d1d1b" d="M 367.261719 858.414062 C 368.984375 856.691406 370.703125 854.972656 372.425781 853.25 C 377.160156 857.984375 381.894531 862.71875 386.632812 867.457031 C 388.375 869.199219 390.121094 870.945312 391.863281 872.6875 C 394.039062 874.859375 397.417969 871.484375 395.242188 869.308594 C 390.484375 864.550781 385.726562 859.792969 380.972656 855.039062 C 379.25 853.316406 377.53125 851.597656 375.808594 849.875 C 380.542969 845.140625 385.277344 840.40625 390.015625 835.667969 C 391.757812 833.925781 393.503906 832.179688 395.246094 830.4375 C 397.421875 828.265625 394.042969 824.886719 391.867188 827.058594 C 387.109375 831.816406 382.351562 836.574219 377.597656 841.328125 C 375.875 843.050781 374.15625 844.769531 372.433594 846.492188 C 367.695312 841.757812 362.960938 837.023438 358.222656 832.285156 C 356.480469 830.542969 354.738281 828.800781 352.996094 827.058594 C 350.820312 824.882812 347.441406 828.257812 349.617188 830.4375 C 354.375 835.191406 359.132812 839.949219 363.886719 844.703125 C 365.609375 846.425781 367.328125 848.144531 369.050781 849.867188 C 364.316406 854.601562 359.578125 859.339844 354.839844 864.074219 C 353.101562 865.816406 351.355469 867.5625 349.613281 869.304688 C 347.4375 871.480469 350.8125 874.859375 352.992188 872.683594 C 357.746094 867.929688 362.503906 863.171875 367.261719 858.414062 Z M 367.261719 858.414062 " fill-opacity="1" fill-rule="nonzero"/><g clip-path="url(#b0d47ca113)"><path fill="#1d1d1b" d="M 202.457031 637.9375 C 204.179688 636.214844 205.902344 634.496094 207.625 632.773438 C 212.359375 637.507812 217.09375 642.242188 221.832031 646.980469 C 223.574219 648.722656 225.320312 650.46875 227.0625 652.210938 C 229.238281 654.382812 232.613281 651.007812 230.441406 648.832031 C 225.683594 644.074219 220.925781 639.316406 216.171875 634.5625 C 214.449219 632.839844 212.730469 631.121094 211.003906 629.398438 C 215.742188 624.664062 220.476562 619.929688 225.214844 615.191406 C 226.957031 613.449219 228.703125 611.703125 230.441406 609.960938 C 232.617188 607.789062 229.242188 604.410156 227.066406 606.585938 C 222.308594 611.339844 217.550781 616.097656 212.796875 620.851562 C 211.074219 622.574219 209.351562 624.292969 207.628906 626.015625 C 202.894531 621.28125 198.160156 616.546875 193.421875 611.808594 C 191.679688 610.066406 189.933594 608.324219 188.191406 606.582031 C 186.019531 604.40625 182.640625 607.78125 184.8125 609.960938 C 189.570312 614.714844 194.328125 619.472656 199.082031 624.226562 C 200.804688 625.949219 202.527344 627.667969 204.25 629.390625 C 199.511719 634.128906 194.777344 638.863281 190.039062 643.601562 C 188.296875 645.339844 186.554688 647.085938 184.8125 648.828125 C 182.636719 651.003906 186.011719 654.382812 188.191406 652.207031 C 192.945312 647.453125 197.703125 642.695312 202.457031 637.9375 Z M 202.457031 637.9375 " fill-opacity="1" fill-rule="nonzero"/></g><path fill="#1d1d1b" d="M 571.765625 449.351562 C 571.5 449.351562 571.25 449.40625 571.015625 449.5 C 569.804688 449.789062 569.335938 450.765625 569.433594 451.746094 C 569.421875 451.957031 569.429688 452.175781 569.476562 452.410156 C 570.757812 459.125 572.039062 465.84375 573.320312 472.5625 C 573.894531 475.574219 578.5 474.300781 577.925781 471.289062 C 576.996094 466.4375 576.074219 461.585938 575.148438 456.730469 C 584.441406 462.867188 592.84375 470.011719 600.574219 478.226562 C 616.132812 494.75 627.402344 515.152344 631.300781 537.640625 C 633.992188 553.171875 633.003906 569.171875 629.039062 584.390625 C 628.261719 587.367188 632.871094 588.636719 633.644531 585.660156 C 640.632812 558.847656 638.085938 530.402344 625.675781 505.566406 C 616.714844 487.644531 603.160156 472.121094 587.445312 459.789062 C 584.417969 457.410156 581.308594 455.136719 578.113281 452.992188 C 582.929688 452.070312 587.746094 451.152344 592.566406 450.234375 C 595.582031 449.65625 594.304688 445.054688 591.296875 445.628906 C 584.785156 446.867188 578.277344 448.109375 571.765625 449.351562 Z M 571.765625 449.351562 " fill-opacity="1" fill-rule="nonzero"/><path fill="#1d1d1b" d="M 433.632812 805.449219 C 433.035156 806.039062 432.851562 806.71875 432.945312 807.355469 C 432.964844 807.6875 433.0625 808.027344 433.261719 808.351562 C 433.421875 808.695312 433.671875 808.992188 434 809.199219 C 438.671875 813.953125 443.34375 818.707031 448.015625 823.457031 C 450.175781 825.648438 453.550781 822.273438 451.394531 820.078125 C 447.894531 816.519531 444.394531 812.957031 440.894531 809.398438 C 452.308594 809.355469 463.75 810.714844 474.84375 813.367188 C 497.527344 818.789062 518.609375 830.089844 534.320312 847.515625 C 544.234375 858.511719 551.691406 871.585938 556.53125 885.554688 C 557.53125 888.441406 562.148438 887.199219 561.136719 884.28125 C 552.316406 858.828125 535.203125 836.941406 511.984375 823.113281 C 494.199219 812.519531 473.777344 806.839844 453.226562 805.132812 C 449.253906 804.804688 445.265625 804.632812 441.277344 804.628906 C 444.730469 801.234375 448.183594 797.839844 451.636719 794.445312 C 453.832031 792.285156 450.457031 788.910156 448.257812 791.066406 C 443.386719 795.859375 438.511719 800.65625 433.632812 805.449219 Z M 433.632812 805.449219 " fill-opacity="1" fill-rule="nonzero"/><path fill="#1d1d1b" d="M 341.261719 1003.4375 C 327.285156 998.597656 314.214844 991.140625 303.21875 981.226562 C 285.792969 965.515625 274.492188 944.433594 269.066406 921.753906 C 266.414062 910.664062 265.058594 899.222656 265.097656 887.808594 C 268.660156 891.308594 272.21875 894.808594 275.78125 898.308594 C 277.972656 900.46875 281.351562 897.089844 279.15625 894.929688 C 274.40625 890.257812 269.652344 885.585938 264.902344 880.914062 C 264.691406 880.585938 264.394531 880.335938 264.050781 880.175781 C 263.726562 879.976562 263.390625 879.878906 263.054688 879.859375 C 262.421875 879.765625 261.738281 879.945312 261.152344 880.546875 C 256.355469 885.425781 251.5625 890.300781 246.765625 895.175781 C 244.609375 897.371094 247.984375 900.746094 250.144531 898.554688 C 253.539062 895.101562 256.933594 891.648438 260.328125 888.195312 C 260.332031 892.183594 260.507812 896.167969 260.835938 900.144531 C 262.542969 920.691406 268.21875 941.109375 278.8125 958.894531 C 292.648438 982.113281 314.535156 999.230469 339.988281 1008.042969 C 342.90625 1009.050781 344.148438 1004.4375 341.261719 1003.4375 Z M 341.261719 1003.4375 " fill-opacity="1" fill-rule="nonzero"/><path fill="#1d1d1b" d="M 472.335938 450.304688 C 485.628906 469.464844 493.816406 491.9375 493.910156 515.402344 C 493.96875 530.210938 490.816406 544.921875 485.113281 558.5625 C 483.933594 561.382812 488.199219 563.535156 489.390625 560.6875 C 499.789062 535.835938 501.617188 508.113281 493.527344 482.328125 C 487.332031 462.574219 475.894531 444.734375 461.710938 429.761719 C 458.972656 426.867188 456.113281 424.082031 453.144531 421.421875 C 457.980469 421.195312 462.816406 420.964844 467.65625 420.734375 C 470.730469 420.589844 470.464844 415.824219 467.386719 415.964844 C 460.558594 416.289062 453.722656 416.613281 446.894531 416.9375 C 446.050781 416.976562 445.460938 417.363281 445.113281 417.898438 C 444.902344 418.160156 444.753906 418.476562 444.683594 418.855469 C 444.574219 419.21875 444.5625 419.601562 444.667969 419.976562 C 444.980469 426.636719 445.296875 433.289062 445.613281 439.949219 C 445.757812 443.023438 450.527344 442.757812 450.382812 439.679688 C 450.148438 434.695312 449.910156 429.707031 449.671875 424.71875 C 458.210938 432.296875 465.832031 440.9375 472.335938 450.304688 Z M 472.335938 450.304688 " fill-opacity="1" fill-rule="nonzero"/><path fill="#1d1d1b" d="M 319.101562 836.894531 C 319.25 836.507812 319.289062 836.089844 319.183594 835.675781 C 319.183594 829.03125 319.183594 822.390625 319.183594 815.742188 C 319.183594 812.671875 314.40625 812.664062 314.40625 815.742188 C 314.40625 820.742188 314.40625 825.742188 314.40625 830.746094 C 306.191406 822.722656 298.945312 813.675781 292.875 803.945312 C 280.519531 784.136719 273.445312 761.261719 274.523438 737.796875 C 275.199219 723.121094 279.019531 708.671875 285.320312 695.414062 C 286.632812 692.65625 282.515625 690.226562 281.195312 693.003906 C 269.625 717.359375 266.464844 744.964844 273.332031 771.132812 C 278.585938 791.144531 289.160156 809.507812 302.609375 825.121094 C 305.214844 828.144531 307.945312 831.070312 310.789062 833.871094 C 305.953125 833.871094 301.117188 833.871094 296.28125 833.871094 C 293.207031 833.871094 293.203125 838.648438 296.28125 838.648438 C 303.121094 838.648438 309.957031 838.648438 316.796875 838.648438 C 317.53125 838.648438 318.085938 838.375 318.46875 837.960938 C 318.761719 837.695312 318.992188 837.339844 319.101562 836.894531 Z M 319.101562 836.894531 " fill-opacity="1" fill-rule="nonzero"/><path fill="#1d1d1b" d="M 209.023438 589.359375 C 202.289062 563.527344 204.753906 536.03125 216.898438 512.175781 C 225.691406 494.898438 238.789062 480.066406 253.992188 468.132812 C 256.722656 465.992188 259.78125 463.789062 262.90625 461.714844 C 261.984375 466.566406 261.058594 471.414062 260.132812 476.261719 C 259.5625 479.261719 264.164062 480.550781 264.738281 477.53125 C 266.019531 470.8125 267.300781 464.097656 268.582031 457.378906 C 268.628906 457.148438 268.636719 456.929688 268.625 456.71875 C 268.722656 455.738281 268.257812 454.765625 267.042969 454.472656 C 266.808594 454.375 266.554688 454.320312 266.285156 454.320312 C 259.777344 453.082031 253.269531 451.839844 246.761719 450.597656 C 243.757812 450.023438 242.472656 454.625 245.488281 455.199219 C 250.304688 456.117188 255.117188 457.039062 259.929688 457.953125 C 250.332031 464.34375 241.460938 471.921875 233.617188 480.335938 C 217.554688 497.570312 205.832031 518.90625 201.992188 542.300781 C 199.347656 558.398438 200.304688 574.859375 204.417969 590.628906 C 205.191406 593.597656 209.800781 592.339844 209.023438 589.359375 Z M 209.023438 589.359375 " fill-opacity="1" fill-rule="nonzero"/><path fill="#1d1d1b" d="M 370.308594 703.492188 C 371.089844 698.652344 371.867188 693.816406 372.644531 688.976562 C 379.308594 698.386719 387.140625 707.035156 395.777344 714.632812 C 413.46875 730.195312 435.132812 741.296875 458.628906 744.460938 C 474.800781 746.636719 491.226562 745.207031 506.875 740.644531 C 509.824219 739.785156 508.429688 735.21875 505.472656 736.078125 C 479.847656 743.554688 452.285156 741.878906 428.09375 730.429688 C 410.566406 722.140625 395.359375 709.476562 382.996094 694.621094 C 380.773438 691.957031 378.480469 688.960938 376.320312 685.894531 C 381.191406 686.679688 386.066406 687.464844 390.941406 688.25 C 393.957031 688.738281 395.109375 684.097656 392.078125 683.613281 C 385.324219 682.523438 378.570312 681.4375 371.820312 680.347656 C 371.589844 680.308594 371.367188 680.308594 371.160156 680.324219 C 370.175781 680.253906 369.214844 680.746094 368.960938 681.96875 C 368.871094 682.207031 368.824219 682.460938 368.832031 682.730469 C 367.777344 689.269531 366.722656 695.8125 365.667969 702.355469 C 365.179688 705.375 369.820312 706.527344 370.308594 703.492188 Z M 370.308594 703.492188 " fill-opacity="1" fill-rule="nonzero"/></g></g></svg>